HIERARCHY
ROOT Hips
{
  OFFSET 0 0 0
  CHANNELS 6 Xposition Yposition Zposition Zrotation Yrotation Xrotation
  JOINT LeftThigh
  {
    OFFSET 8.409438 0 -5.917753
    CHANNELS 3 Zrotation Yrotation Xrotation
    JOINT LeftLeg
    {
      OFFSET 0 0 -42.358652
      CHANNELS 3 Zrotation Yrotation Xrotation
      JOINT LeftFoot
      {
        OFFSET 0 0 -39.357303
        CHANNELS 3 Zrotation Yrotation Xrotation
      }
    }
  }
  JOINT RightThigh
  {
    OFFSET -8.409438 0 -5.917753
    CHANNELS 3 Zrotation Yrotation Xrotation
    JOINT RightLeg
    {
      OFFSET 0 0 -42.358652
      CHANNELS 3 Zrotation Yrotation Xrotation
      JOINT RightFoot
      {
        OFFSET 0 0 -39.357303
        CHANNELS 3 Zrotation Yrotation Xrotation
      }
    }
  }
  JOINT SpineLow
  {
    OFFSET 0 0 4.719101
    CHANNELS 3 Zrotation Yrotation Xrotation
    JOINT SpineMid
    {
      OFFSET 0 0 12.899191
      CHANNELS 3 Zrotation Yrotation Xrotation
      JOINT Chest
      {
        OFFSET 0 0 12.899191
        CHANNELS 3 Zrotation Yrotation Xrotation
        JOINT LeftShoulder
        {
          OFFSET 7.550562 1.41573 9.438202
          CHANNELS 3 Zrotation Yrotation Xrotation
          JOINT LeftArm
          {
            OFFSET 9.155056 0 4.247191
            CHANNELS 3 Zrotation Yrotation Xrotation
            JOINT LeftForearm
            {
              OFFSET 0 0 25.771955
              CHANNELS 3 Zrotation Yrotation Xrotation
              JOINT LeftHand
              {
                OFFSET 0 0 25.197169
                CHANNELS 3 Zrotation Yrotation Xrotation
              }
            }
          }
        }
        JOINT RightShoulder
        {
          OFFSET -7.550562 1.41573 9.438202
          CHANNELS 3 Zrotation Yrotation Xrotation
          JOINT RightArm
          {
            OFFSET -9.155056 0 4.247191
            CHANNELS 3 Zrotation Yrotation Xrotation
            JOINT RightForearm
            {
              OFFSET 0 0 -25.771955
              CHANNELS 3 Zrotation Yrotation Xrotation
              JOINT RightHand
              {
                OFFSET 0 0 -25.197169
                CHANNELS 3 Zrotation Yrotation Xrotation
              }
            }
          }
        }
        JOINT Neck
        {
          OFFSET 0 0 15.101124
          CHANNELS 3 Zrotation Yrotation Xrotation
          JOINT Head
          {
            OFFSET 0 0 11.325843
            CHANNELS 3 Zrotation Yrotation Xrotation
            End Site
            {
              OFFSET 0 0 14.157303
            }
          }
        }
      }
    }
  }
}
MOTION
Frames: 5
Frame Time: 0.0
0.0  101.685394  0.0  112.632965  -50.485135  166.85739  40.856712  -35.127595  1.589569  4.751102  -0.088277  25.820988  -19.676461  -13.974253  -11.390436  -12.29695  17.751229  -25.433846  10.335066  0.343592  22.418768  25.216079  14.19858  4.24387  2.005863  2.358458  3.251631  5.804503  6.157874  9.101454  5.804503  6.157875  9.101454  2.631127  15.492757  10.971468  156.318668  40.036227  164.943287  -49.65323  25.29895  65.542229  55.734471  -42.789461  39.817005  21.862948  -3.150507  21.235206  112.993546  59.925998  23.473442  -16.778837  -14.35789  -98.525106  84.353376  39.19032  32.06978  12.779102  14.485933  6.213769  9.383602  11.000293  4.32859  
0.0  101.685394  0.0  114.101625  -50.448497  165.191487  42.173219  -35.631483  0.168128  6.325348  -1.214126  29.564683  -20.344813  -13.945947  -11.897595  -10.905843  17.763083  -25.31085  9.582771  0.341273  22.954738  25.265106  13.805229  4.470171  2.222881  2.291927  3.336036  6.395177  5.937852  9.344268  6.395177  5.937853  9.344269  3.465118  15.771219  11.47368  156.833757  39.223663  165.234105  -51.26074  26.203622  64.091037  54.30965  -43.129459  42.9189  22.145768  -3.341678  21.639154  115.492755  60.754917  25.981776  -16.754289  -14.50009  -98.622907  83.99027  38.666505  31.939097  12.898059  14.824794  6.120467  9.468456  11.253855  4.24734  
0.0  101.685394  0.0  114.412566  -50.478153  164.578784  40.139633  -35.263282  -0.361892  8.025066  -2.275725  33.645225  -20.092406  -13.888742  -12.052334  -10.564533  18.072353  -25.634829  9.44092  -0.431537  23.839619  24.704897  13.714275  4.762337  2.379679  2.276822  3.464333  6.832335  5.860536  9.706937  6.832335  5.860536  9.706937  4.07543  15.666649  11.430111  157.239587  38.332866  165.58077  -51.255854  25.666295  64.477053  53.31834  -43.02603  43.925175  22.227686  -3.618823  21.803881  118.40105  61.680187  28.747124  -16.941919  -14.782745  -98.715678  83.900462  38.091831  31.956002  12.618541  14.898679  5.642613  9.270367  11.296272  3.895759  
0.0  101.685394  0.0  113.997022  -50.63054  164.767455  35.919249  -34.842074  -0.622338  10.026451  -2.663858  38.216431  -19.461339  -13.843991  -12.010271  -11.070112  18.442484  -26.339373  9.529838  -1.538905  24.881328  22.0291  12.726497  4.296473  2.454168  2.27057  3.581858  7.044763  5.8195  10.033971  7.044762  5.8195  10.03397  4.737097  15.584606  11.266146  157.676865  37.453045  165.846078  -50.473971  24.489857  65.141443  52.469649  -43.46961  44.450144  22.471614  -3.985676  21.711849  121.456593  62.352938  31.694855  -17.335771  -15.021653  -98.765265  83.856701  37.452218  31.992306  12.265697  14.827025  5.028905  9.023433  11.226516  3.448305  
0.0  101.685394  0.0  113.475323  -50.642054  165.278966  31.00267  -34.631588  -0.830876  11.905086  -1.987666  43.101984  -18.430119  -13.720911  -12.013934  -11.890378  18.856236  -27.325952  9.650971  -2.818129  25.840219  20.922017  12.911919  4.484161  2.499099  2.315784  3.678965  7.183294  5.924761  10.309143  7.183294  5.924761  10.309143  5.495155  15.544932  11.010357  158.184074  36.792492  166.029752  -49.238422  23.145895  65.767785  51.871866  -44.205258  44.718936  23.16683  -4.307657  21.566479  124.252224  63.115085  34.572312  -17.864818  -15.168561  -98.762194  83.661617  36.868102  31.933421  11.920129  14.625831  4.318743  8.785983  11.058475  2.931596  
